<?xml version="1.0" encoding="UTF-8" standalone="no"?>
<!DOCTYPE svg PUBLIC "-//W3C//DTD SVG 1.1//EN" "http://www.w3.org/Graphics/SVG/1.1/DTD/svg11.dtd">
<svg width="100%" height="100%" viewBox="0 0 1081 1732" version="1.1" xmlns="http://www.w3.org/2000/svg" xmlns:xlink="http://www.w3.org/1999/xlink" xml:space="preserve" xmlns:serif="http://www.serif.com/" style="fill-rule:evenodd;clip-rule:evenodd;stroke-linejoin:round;stroke-miterlimit:2;">
    <g transform="matrix(1,0,0,1,-3,-178)">
        <g id="Letter-Logo" transform="matrix(0.906228,0,0,0.887022,1549.33,155.242)">
            <rect x="-1705.5" y="26.504" width="1191.79" height="1950.81" style="fill:none;"/>
            <g id="Layer-1" serif:id="Layer 1" transform="matrix(4.59781,0,0,4.69737,-1707.9,11.0358)">
                <g transform="matrix(1,0,0,1,0,2.882)">
                    <rect x="217.062" y="3.146" width="40" height="410.826" style="fill:rgb(10,80,152);"/>
                </g>
                <g transform="matrix(1,0,0,1,186.062,6.0288)">
                    <path d="M0,205L-82.494,205C-148.357,205 -182.818,153.436 -182.818,102.5C-182.818,51.564 -148.357,0 -82.494,0L0,0L0,40L-82.494,40C-124.166,40 -142.818,71.391 -142.818,102.5C-142.818,133.609 -124.166,165 -82.494,165L0,165L0,205Z" style="fill:rgb(101,153,206);fill-rule:nonzero;"/>
                </g>
                <g transform="matrix(1,0,0,1,50.1265,241.938)">
                    <path d="M0,175.083L113.594,0L66.256,0L-47.147,174.789L-46.693,175.083L0,175.083Z" style="fill:rgb(10,80,152);fill-rule:nonzero;"/>
                </g>
            </g>
        </g>
    </g>
</svg>
