<?xml version="1.0" encoding="UTF-8" standalone="no"?>
<!DOCTYPE svg PUBLIC "-//W3C//DTD SVG 1.1//EN" "http://www.w3.org/Graphics/SVG/1.1/DTD/svg11.dtd">
<svg width="100%" height="100%" viewBox="0 0 418 418" version="1.1" xmlns="http://www.w3.org/2000/svg" xmlns:xlink="http://www.w3.org/1999/xlink" xml:space="preserve" xmlns:serif="http://www.serif.com/" style="fill-rule:evenodd;clip-rule:evenodd;stroke-miterlimit:10;">
    <g transform="matrix(1,0,0,1,-12890,-468)">
        <g id="Location" transform="matrix(4.16667,0,0,4.16667,12890.6,468.75)">
            <rect x="0" y="0" width="100" height="100" style="fill:none;"/>
            <clipPath id="_clip1">
                <rect x="0" y="0" width="100" height="100"/>
            </clipPath>
            <g clip-path="url(#_clip1)">
                <g transform="matrix(1,0,0,1,53.4209,29.3029)">
                    <path d="M0,64.984L-5.54,64.984C-7.07,64.984 -8.311,63.744 -8.311,62.213L-8.311,2.771C-8.311,1.24 -7.07,0 -5.54,0L0,0C1.53,0 2.771,1.24 2.771,2.771L2.771,62.213C2.771,63.744 1.53,64.984 0,64.984Z" style="fill:rgb(237,33,39);fill-rule:nonzero;stroke:rgb(3,4,5);stroke-width:3.2px;"/>
                </g>
                <g transform="matrix(0,-1,-1,0,50.651,5.4733)">
                    <path d="M-12.035,-12.035C-18.68,-12.035 -24.069,-6.646 -24.069,0.001C-24.069,6.647 -18.68,12.035 -12.035,12.035C-5.388,12.035 0.001,6.647 0.001,0.001C0.001,-6.646 -5.388,-12.035 -12.035,-12.035" style="fill:white;fill-rule:nonzero;"/>
                </g>
                <g transform="matrix(0,-1,-1,0,50.651,5.4733)">
                    <ellipse cx="-12.034" cy="0" rx="12.035" ry="12.035" style="fill:none;stroke:rgb(3,4,5);stroke-width:5px;"/>
                </g>
                <g transform="matrix(1,0,0,1,63.9814,26.8921)">
                    <path d="M0,6.644L-26.661,6.644C-28.051,6.644 -29.178,5.517 -29.178,4.127L-29.178,2.517C-29.178,1.127 -28.051,0 -26.661,0L0,0C1.39,0 2.517,1.127 2.517,2.517L2.517,4.127C2.517,5.517 1.39,6.644 0,6.644Z" style="fill:rgb(3,4,5);fill-rule:nonzero;stroke:rgb(3,4,5);stroke-width:3.2px;"/>
                </g>
                <g transform="matrix(-0.872921,0.487862,0.487862,0.872921,47.3251,46.7501)">
                    <path d="M-11.888,-3.097L0.807,-3.096" style="fill:none;fill-rule:nonzero;stroke:rgb(3,4,5);stroke-width:3.2px;"/>
                </g>
                <g transform="matrix(-0.872921,0.487862,0.487862,0.872921,47.3251,61.4195)">
                    <path d="M-11.888,-3.097L0.807,-3.096" style="fill:none;fill-rule:nonzero;stroke:rgb(3,4,5);stroke-width:3.2px;"/>
                </g>
                <g transform="matrix(-0.872921,0.487862,0.487862,0.872921,47.3251,76.0889)">
                    <path d="M-11.888,-3.097L0.807,-3.096" style="fill:none;fill-rule:nonzero;stroke:rgb(3,4,5);stroke-width:3.2px;"/>
                </g>
                <g transform="matrix(-0.872921,0.487862,0.487862,0.872921,47.3251,90.7584)">
                    <path d="M-11.888,-3.097L0.807,-3.096" style="fill:none;fill-rule:nonzero;stroke:rgb(3,4,5);stroke-width:3.2px;"/>
                </g>
            </g>
        </g>
    </g>
</svg>
