<?xml version="1.0" encoding="UTF-8" standalone="no"?><!DOCTYPE svg PUBLIC "-//W3C//DTD SVG 1.1//EN" "http://www.w3.org/Graphics/SVG/1.1/DTD/svg11.dtd"><svg width="100%" height="100%" viewBox="0 0 513 513" version="1.1" xmlns="http://www.w3.org/2000/svg" xmlns:xlink="http://www.w3.org/1999/xlink" xml:space="preserve" xmlns:serif="http://www.serif.com/" style="fill-rule:evenodd;clip-rule:evenodd;stroke-linejoin:round;stroke-miterlimit:2;"><rect id="Square-Letter-Logo" x="0.155" y="0" width="512" height="512" style="fill:none;"/><g><rect x="362.029" y="6.041" width="48.655" height="499.715" style="fill:#0a5098;"/><path d="M324.322,255.397l-100.343,0c-80.114,0 -122.031,-62.72 -122.031,-124.677c0,-61.957 41.917,-124.678 122.031,-124.678l100.343,0l-0,48.655l-100.343,-0c-50.689,-0 -73.376,38.183 -73.376,76.023c-0,37.84 22.687,76.023 73.376,76.023l100.343,-0l-0,48.654Z" style="fill:#6599ce;fill-rule:nonzero;"/><path d="M158.974,505.959l138.172,-212.965l-57.58,-0l-137.94,212.607l0.553,0.358l56.795,-0Z" style="fill:#0a5098;fill-rule:nonzero;"/></g></svg>